<svg xmlns="http://www.w3.org/2000/svg" viewBox="0 0 64 64">
  <defs>
    <linearGradient id="g" x1="0" y1="0" x2="1" y2="1">
      <stop offset="0%" stop-color="#6c63ff"/>
      <stop offset="100%" stop-color="#8b7aff"/>
    </linearGradient>
  </defs>
  <rect width="64" height="64" rx="14" fill="url(#g)"/>
  <!--
    Gatehouse G mark. Tight viewBox (199.5 34.1 199.9 199.9) computed
    from the actual glyph bounding box so the letterform fills the tile
    with just a small breathing margin.
  -->
  <svg x="10" y="10" width="44" height="44" viewBox="199.5 34.1 199.9 199.9" preserveAspectRatio="xMidYMid meet">
    <g transform="translate(0,327) scale(0.1,-0.1)" fill="#ffffff">
      <path d="M2857 2805 c-130 -44 -221 -123 -277 -241 -41 -86 -50 -142 -50 -321 l0 -154 -40 -48 c-98 -116 -161 -311 -146 -453 25 -246 157 -438 371 -542 95 -46 179 -66 285 -66 250 0 480 143 589 367 39 80 71 209 71 291 l0 62 -330 0 -330 0 0 -65 0 -65 114 0 115 0 -10 -28 c-24 -68 -111 -135 -192 -149 -78 -12 -194 50 -233 127 -14 27 -25 69 -28 103 -10 149 134 277 275 246 51 -12 124 -52 138 -77 9 -15 16 -11 58 31 l48 48 -43 39 c-77 69 -122 85 -242 85 -95 0 -110 -3 -158 -28 -78 -41 -128 -91 -165 -167 -77 -153 -49 -320 73 -434 61 -57 113 -83 192 -96 119 -18 219 13 309 97 48 45 109 148 109 185 0 16 9 18 80 18 93 0 93 0 60 -94 -43 -127 -120 -222 -235 -291 -292 -175 -663 -28 -771 305 -40 125 -14 297 63 419 46 74 77 105 143 150 78 53 113 67 213 88 84 17 90 17 174 0 163 -34 302 -132 368 -259 l30 -58 72 0 73 0 -11 27 c-31 83 -80 155 -159 234 -70 71 -100 94 -170 127 -89 42 -209 72 -290 72 -76 0 -199 -29 -274 -64 l-68 -33 4 121 c4 106 8 129 33 184 38 84 112 152 197 181 79 27 138 27 219 -1 52 -17 76 -33 124 -82 72 -73 95 -127 103 -246 l5 -85 64 -47 63 -47 0 113 c0 139 -11 203 -50 282 -102 209 -345 313 -563 239z m253 -16 c30 -5 56 -13 58 -19 2 -5 12 -10 23 -10 10 0 19 -4 19 -10 0 -5 5 -10 10 -10 25 0 150 -112 150 -134 0 -4 9 -19 20 -34 11 -15 21 -36 23 -47 2 -11 9 -30 15 -42 9 -16 12 -61 10 -138 l-3 -116 -34 25 c-32 24 -34 28 -37 96 -6 137 -46 216 -160 312 -36 31 -155 68 -216 68 -32 0 -58 -4 -58 -8 0 -4 -21 -14 -47 -21 -43 -11 -113 -53 -121 -73 -2 -4 -11 -8 -19 -8 -9 0 -14 -3 -11 -6 3 -3 -5 -17 -18 -30 -44 -49 -74 -151 -79 -268 -3 -85 -1 -109 11 -121 24 -24 27 -23 159 37 84 37 316 33 412 -8 101 -43 123 -55 123 -64 0 -5 6 -10 14 -10 23 0 121 -95 157 -153 18 -28 36 -54 39 -57 3 -3 13 -21 23 -40 l16 -35 -32 -5 c-18 -3 -39 -2 -47 3 -13 8 -54 68 -68 100 -13 29 -155 147 -177 147 -4 0 -19 8 -33 18 -15 10 -57 26 -93 36 -77 20 -213 18 -294 -6 -58 -16 -145 -58 -145 -70 0 -4 -7 -8 -15 -8 -12 0 -125 -103 -125 -114 0 -2 -15 -29 -34 -59 -18 -31 -39 -78 -46 -104 -7 -26 -17 -52 -21 -58 -13 -13 -11 -225 1 -225 6 0 10 -8 10 -17 0 -28 22 -83 56 -143 31 -54 125 -160 154 -173 19 -9 47 -27 79 -50 13 -9 32 -17 43 -17 10 0 33 -7 49 -16 42 -21 244 -21 295 1 20 8 47 15 59 15 12 0 29 7 36 16 7 9 22 20 34 25 11 5 29 15 39 21 26 17 136 125 136 133 0 4 14 27 30 52 17 24 30 49 30 56 0 16 25 85 33 93 14 14 6 46 -15 65 -17 14 -39 18 -89 19 -75 0 -92 -10 -109 -62 -6 -21 -16 -38 -21 -38 -5 0 -9 -11 -9 -24 0 -26 -112 -146 -136 -146 -8 0 -26 -7 -40 -16 -40 -27 -264 -21 -264 6 0 6 -9 10 -19 10 -28 0 -141 117 -141 146 0 13 -4 24 -9 24 -17 0 -31 63 -31 138 0 62 5 85 30 138 37 76 92 134 161 168 45 23 63 26 154 26 73 0 108 -4 117 -13 7 -8 25 -17 39 -20 27 -7 79 -50 79 -65 0 -5 -11 -19 -24 -31 l-25 -23 -33 26 c-109 83 -242 72 -343 -28 -29 -28 -54 -62 -58 -76 -3 -14 -8 -36 -11 -50 -30 -128 53 -269 180 -306 73 -21 87 -22 148 -4 61 18 160 109 169 155 10 54 -8 64 -118 67 l-99 3 -3 33 -4 32 307 0 306 0 -5 -72 c-3 -40 -9 -89 -12 -108 -9 -46 -56 -160 -67 -160 -4 0 -8 -9 -8 -20 0 -11 -4 -20 -9 -20 -5 0 -12 -8 -15 -18 -15 -47 -212 -212 -253 -212 -7 0 -29 -9 -50 -19 -37 -19 -82 -27 -194 -37 -73 -6 -298 46 -319 74 -3 4 -17 14 -31 22 -69 39 -145 108 -175 159 -10 17 -22 31 -26 31 -4 0 -8 7 -8 15 0 8 -7 23 -16 34 -21 24 -54 117 -54 153 0 15 -4 29 -9 33 -12 7 -7 175 7 255 8 50 33 112 65 165 28 46 76 112 91 124 14 11 16 42 16 198 0 176 1 188 27 251 14 37 30 69 35 70 4 2 8 8 8 14 0 19 141 148 168 154 15 4 36 13 47 20 11 8 38 15 60 15 22 1 54 5 70 9 17 4 41 6 55 3 14 -3 50 -9 80 -14z"/>
    </g>
  </svg>
</svg>
